# xmcd
#
# Track frame offsets:
#	150
#	15820
#	32707
#	51790
#	71065
#	89805
#	105760
#	122490
#	143550
#	164620
#	180565
#	196892
#	212782
#	230527
#	248057
#	279885
#
# Disc length: 4269 seconds
#
# Revision: 3
# Processed by: cddbd v1.5.2PL0 Copyright (c) Steve Scherf et al.
# Submitted via: EasyCDDAExtractor 15.3.0.1
#
DISCID=d110ab10
DTITLE=Paulina Rubio - I'm So In Love - Grandes Exitos
DYEAR=2001
DGENRE=Latin
TTITLE0=I'm So In Love
TTITLE1=Mio
TTITLE2=Te Daria Mi Vida
TTITLE3=Only For You
TTITLE4=El Me Engaño
TTITLE5=Sabor A Miel
TTITLE6=Asunto De Dos
TTITLE7=Siempre Tuya Desde La Raiz
TTITLE8=Abriendo Las Puertas Al Amor
TTITLE9=Nieva, Nieva
TTITLE10=Pobre Niña Rica
TTITLE11=Nada De Ti
TTITLE12=Hoy Te Deje De Amar
TTITLE13=Amor De Mujer
TTITLE14=I'm So In Love (Mijango's Classic Mix)
TTITLE15=Megahits Extended Version Mix
EXTD=
EXTT0=
EXTT1=
EXTT2=
EXTT3=
EXTT4=
EXTT5=
EXTT6=
EXTT7=
EXTT8=
EXTT9=
EXTT10=
EXTT11=
EXTT12=
EXTT13=
EXTT14=
EXTT15=
PLAYORDER=
